<?xml version="1.0" standalone="no"?>
<!DOCTYPE svg PUBLIC "-//W3C//DTD SVG 1.1//EN" "http://www.w3.org/Graphics/SVG/1.1/DTD/svg11.dtd" >
<svg>
<metadata>
Created by FontForge 20090622 at Wed Nov 23 16:49:55 2016
 By ffonts
1.2, Copyright Copr. Castcraft Software, Inc. 1990-1991.
</metadata>
<defs>
<font id="OPTIStymie-MediumCond" horiz-adv-x="510" >
  <font-face 
    font-family="OPTIStymie"
    font-weight="500"
    font-stretch="normal"
    units-per-em="1000"
    panose-1="0 0 0 0 0 0 0 0 0 0"
    ascent="800"
    descent="-200"
    x-height="469"
    cap-height="782"
    bbox="-33.4087 -248 827.924 1016"
    underline-thickness="59"
    underline-position="-78"
    stemh="69"
    stemv="74"
    unicode-range="U+0020-U+221E"
  />
<missing-glyph horiz-adv-x="280" 
 />
    <glyph glyph-name=".notdef" horiz-adv-x="280" 
 />
    <glyph glyph-name="space" unicode=" " horiz-adv-x="209" 
d="M0 0z" />
    <glyph glyph-name="exclam" unicode="!" horiz-adv-x="119" 
d="M34 767h73l-10 -575h-42zM35 109h77v-109h-77v109z" />
    <glyph glyph-name="quotedbl" unicode="&#x22;" horiz-adv-x="210" 
d="M79 454h-22l-17 202c-1 21 -18 106 9 123c13 9 27 9 38 0c24 -17 9 -119 9 -125zM177 454h-23l-17 202c-1 21 -18 106 10 123c13 9 26 9 37 0c25 -17 9 -119 9 -125z" />
    <glyph glyph-name="numbersign" unicode="#" horiz-adv-x="748" 
d="M425 695l-78 -222h168l76 222h59l-76 -222h163l-18 -48h-161l-60 -173h163l-18 -50h-164l-75 -217h-59l75 217h-166l-76 -217h-59l76 217h-161l17 50h160l61 173h-161l16 48h161l76 222h61zM271 252h167l61 173h-168z" />
    <glyph glyph-name="dollar" unicode="$" horiz-adv-x="394" 
d="M173 808h67v-35c76 -11 111 -69 128 -157l-69 -26c0 19 -1 42 -9 63c-14 40 -38 50 -50 51v-292c79 -46 125 -91 139 -176c10 -60 -2 -140 -52 -191c-26 -26 -63 -47 -87 -51v-106h-67v101c-84 21 -137 82 -144 169l68 26c0 -46 21 -102 76 -124v297
c-92 53 -139 121 -139 220c0 60 20 137 102 181c11 5 27 11 37 13v37zM121 656c-10 -19 -14 -48 -14 -67c-1 -53 17 -100 66 -138v253c-8 -1 -36 -13 -52 -48zM240 60c60 25 72 72 74 119c2 58 -15 104 -74 142v-261z" />
    <glyph glyph-name="percent" unicode="%" horiz-adv-x="372" 
d="M93 612c13 5 37 7 54 -6c34 -25 39 -88 38 -120c-1 -36 -5 -90 -46 -117c-15 -9 -40 -10 -57 -3c-26 13 -38 38 -45 72c-7 37 -7 153 56 174zM283 584h48l-224 -580h-48zM268 245c13 4 36 7 53 -6c34 -25 40 -88 39 -120c-1 -37 -6 -90 -46 -117c-15 -9 -41 -11 -57 -3
c-27 13 -39 37 -45 72c-8 37 -8 153 56 174zM110 401c17 0 30 20 30 85c0 63 -13 87 -30 87s-30 -24 -30 -87c0 -68 13 -85 30 -85zM285 34c17 0 30 20 30 85c0 63 -13 87 -30 87s-30 -24 -30 -87c0 -69 13 -85 30 -85z" />
    <glyph glyph-name="ampersand" unicode="&#x26;" horiz-adv-x="484" 
d="M365 782v-196h-72v127c-7 4 -30 6 -39 3c-20 -5 -28 -13 -38 -29c-22 -37 1 -123 20 -169l111 -276c12 44 23 117 23 171h-45v69h149v-69h-36s0 -24 -1 -38c-7 -99 -25 -172 -50 -230l32 -84h53v-70h-119l-20 54c-42 -54 -103 -75 -155 -66c-56 9 -98 42 -123 108
c-35 86 -30 209 49 317c15 20 37 47 64 71c-26 65 -67 185 -16 256c35 51 87 60 138 59c19 0 54 -4 75 -8zM128 299c-39 -95 -13 -179 14 -215c18 -23 41 -34 71 -34c38 0 77 40 91 71l-109 286c-20 -19 -55 -79 -67 -108z" />
    <glyph glyph-name="quotesingle" unicode="'" horiz-adv-x="188" 
d="M107 782h70l-97 -271h-46z" />
    <glyph glyph-name="parenleft" unicode="(" horiz-adv-x="257" 
d="M245 857v-67c-79 -4 -107 -72 -117 -251c-3 -53 -5 -96 -5 -156c0 -62 0 -91 3 -142c11 -169 22 -276 119 -282v-66c-166 0 -198 172 -208 328c-3 60 -3 103 -3 164c0 57 0 88 3 142c9 150 39 330 208 330z" />
    <glyph glyph-name="parenright" unicode=")" horiz-adv-x="257" 
d="M242 527c3 -54 3 -85 3 -142c0 -61 0 -104 -3 -164c-10 -156 -42 -328 -208 -328v66c98 6 108 113 119 282c3 51 3 80 3 142c0 60 -2 103 -5 156c-10 179 -38 247 -117 251v67c169 0 199 -180 208 -330z" />
    <glyph glyph-name="asterisk" unicode="*" horiz-adv-x="380" 
d="M34 662l30 45l112 -59v128h57v-119l114 55l21 -48l-111 -67l109 -66s-12 -36 -21 -46l-112 59v-123h-57v123l-117 -56l-22 51l108 58z" />
    <glyph glyph-name="plus" unicode="+" horiz-adv-x="651" 
d="M303 615h66v-273h270v-65h-267v-277h-69v276h-269v64h269v275z" />
    <glyph glyph-name="comma" unicode="," horiz-adv-x="136" 
d="M55 107h69l-96 -271h-46z" />
    <glyph glyph-name="hyphen" unicode="-" horiz-adv-x="192" 
d="M34 314h146v-63h-146v63z" />
    <glyph glyph-name="period" unicode="." horiz-adv-x="123" 
d="M34 109h77v-109h-77v109z" />
    <glyph glyph-name="slash" unicode="/" horiz-adv-x="482" 
d="M423 772h47l-386 -781h-50z" />
    <glyph glyph-name="zero" unicode="0" horiz-adv-x="405" 
d="M180 761c32 9 81 7 120 -31c122 -120 97 -438 75 -540c-14 -66 -45 -169 -121 -199c-37 -13 -71 -10 -106 14c-107 77 -114 304 -114 403v13c0 74 22 306 146 340zM211 47c67 0 108 93 108 328c0 211 -41 332 -106 332c-67 0 -108 -121 -108 -330
c0 -237 42 -330 106 -330z" />
    <glyph glyph-name="one" unicode="1" horiz-adv-x="405" 
d="M254 761v-701h64v-60h-207v60h65v636h-65v65h143z" />
    <glyph glyph-name="two" unicode="2" horiz-adv-x="405" 
d="M130 61h177v124h71v-185h-331c4 62 25 122 91 223l75 113c72 109 104 215 72 313c-10 29 -32 50 -64 54c-19 3 -42 -4 -61 -27c-34 -41 -36 -111 -35 -162l-76 17c0 62 17 167 86 214c41 28 88 32 128 18c54 -18 86 -57 100 -108c20 -75 20 -187 -78 -334l-109 -163
c-21 -30 -43 -73 -46 -97z" />
    <glyph glyph-name="three" unicode="3" horiz-adv-x="405" 
d="M284 400c85 -43 103 -119 95 -203c-5 -63 -29 -149 -105 -192c-40 -22 -96 -26 -143 0c-72 42 -96 127 -97 190l71 22c0 -23 5 -125 62 -156c20 -12 50 -15 76 0c44 26 58 103 62 139c4 40 5 112 -48 152c-25 18 -59 17 -88 11v73c28 -8 65 -12 95 16
c43 39 45 122 39 169c-4 31 -16 65 -52 85c-17 8 -41 7 -60 -5c-40 -24 -51 -90 -51 -123l-71 32c6 58 30 121 101 154c34 17 87 17 129 -9c61 -38 80 -93 83 -154c3 -62 -9 -156 -98 -201z" />
    <glyph glyph-name="four" unicode="4" horiz-adv-x="405" 
d="M262 770h55v-495h68v-67h-68v-148h59v-60h-192v60h59v148h-216v65zM103 275h140v297z" />
    <glyph glyph-name="five" unicode="5" horiz-adv-x="405" 
d="M84 760h280v-182h-66v115h-148l-9 -222c37 27 95 39 137 13c77 -46 95 -133 100 -199c4 -54 -3 -205 -89 -271c-34 -27 -87 -35 -121 -19c-77 36 -109 120 -118 186l67 22c1 -42 19 -124 73 -146c17 -8 43 -6 64 10c60 48 59 177 52 238c-4 38 -21 105 -63 124
c-20 10 -52 8 -73 -8c-23 -20 -33 -43 -44 -67l-56 30z" />
    <glyph glyph-name="six" unicode="6" horiz-adv-x="405" 
d="M380 597l-66 -20c0 32 -7 100 -48 121c-19 10 -42 10 -64 -4c-67 -44 -87 -206 -91 -276c44 45 111 72 170 45c71 -35 94 -126 98 -190s-2 -210 -96 -269c-38 -23 -95 -29 -136 -5c-107 61 -110 258 -110 332v41c0 78 20 308 139 380c33 20 91 22 124 3
c60 -34 77 -103 80 -158zM134 122c9 -38 30 -65 61 -74c21 -6 45 1 60 15c48 43 53 185 47 238c-5 44 -17 83 -58 102c-20 9 -47 4 -65 -9c-76 -52 -57 -226 -45 -272z" />
    <glyph glyph-name="seven" unicode="7" horiz-adv-x="405" 
d="M46 761h336v-50l-168 -651h53v-60h-182v60h54l163 630h-184v-141h-72v212z" />
    <glyph glyph-name="eight" unicode="8" horiz-adv-x="405" 
d="M287 393c88 -53 104 -127 101 -205c-3 -54 -25 -138 -94 -179c-40 -25 -101 -33 -151 -7c-65 34 -92 100 -98 164c-8 71 6 167 91 222c-76 45 -88 119 -86 197c1 56 20 128 89 168c43 24 101 22 142 2c63 -31 83 -91 89 -146c10 -83 -4 -172 -83 -216zM146 666
c-30 -51 -28 -131 -11 -180c11 -31 37 -58 64 -64c25 -6 47 3 62 18c41 40 40 130 36 167c-5 35 -19 79 -54 96c-19 10 -44 7 -62 -3c-14 -7 -29 -23 -35 -34zM122 261c-7 -40 -1 -145 34 -185c25 -28 55 -29 77 -25c35 7 56 31 68 67c17 50 20 149 -14 197
c-24 33 -54 43 -76 40c-55 -5 -79 -42 -89 -94z" />
    <glyph glyph-name="nine" unicode="9" horiz-adv-x="405" 
d="M43 157l66 21c0 -32 7 -100 48 -121c19 -10 42 -10 64 4c67 44 87 206 91 276c-44 -45 -111 -73 -170 -45c-71 35 -94 126 -98 190s2 210 96 269c38 23 94 28 136 5c107 -61 109 -258 109 -332v-41c0 -78 -19 -308 -138 -380c-33 -20 -91 -22 -124 -3
c-60 34 -77 103 -80 157zM289 633c-10 38 -30 65 -61 74c-21 6 -45 -1 -60 -15c-48 -43 -53 -186 -47 -238c5 -44 17 -84 58 -102c20 -9 47 -4 65 9c76 52 57 226 45 272z" />
    <glyph glyph-name="colon" unicode=":" horiz-adv-x="123" 
d="M34 109h77v-109h-77v109zM34 425h77v-109h-77v109z" />
    <glyph glyph-name="semicolon" unicode=";" horiz-adv-x="136" 
d="M47 425h77v-109h-77v109zM41 107h69l-96 -271h-46z" />
    <glyph glyph-name="less" unicode="&#x3c;" horiz-adv-x="520" 
d="M509 469l-384 -157l384 -158v-77l-475 200v69l475 200v-77z" />
    <glyph glyph-name="equal" unicode="=" horiz-adv-x="804" 
d="M34 469h758v-63h-758v63zM34 218h758v-60h-758v60z" />
    <glyph glyph-name="greater" unicode="&#x3e;" horiz-adv-x="520" 
d="M509 276l-475 -200v77l380 157l-380 158v77l475 -200v-69z" />
    <glyph glyph-name="question" unicode="?" horiz-adv-x="314" 
d="M170 379l-13 -188h-33l-12 240c35 -7 73 -5 103 29c33 38 30 155 16 200c-8 28 -23 53 -53 63c-16 5 -40 3 -58 -15c-20 -21 -29 -59 -30 -93l-56 20c6 47 29 106 83 132c32 15 79 12 108 -3c48 -25 68 -77 75 -129c6 -53 0 -163 -42 -210c-30 -34 -59 -43 -88 -46z
M102 109h77v-109h-77v109z" />
    <glyph glyph-name="at" unicode="@" horiz-adv-x="840" 
d="M507 153c-42 -63 -92 -90 -157 -83c-45 4 -83 25 -107 76c-28 60 -4 171 36 231c48 72 108 111 174 107c32 -2 72 -17 90 -57c3 -6 5 -13 11 -34l21 77h74l-50 -189c-21 -77 -29 -111 -9 -135c13 -15 37 -18 63 -13c54 8 91 53 114 112c25 67 24 192 -27 264
c-73 98 -216 124 -295 118c-117 -7 -232 -55 -309 -196c-49 -95 -61 -247 -1 -354c64 -114 192 -159 290 -165c104 -5 203 21 323 93l23 -32c-167 -112 -363 -136 -511 -70c-141 64 -205 162 -224 294c-12 105 19 273 146 375c125 101 320 114 439 74
c107 -38 179 -119 200 -222c18 -79 4 -221 -79 -300c-41 -40 -116 -62 -158 -50c-41 10 -65 32 -77 79zM369 373c-38 -58 -70 -161 -50 -211c10 -23 29 -38 48 -42c28 -4 57 7 83 30c50 44 83 168 77 217c-6 28 -16 48 -42 59c-20 9 -47 7 -70 -6c-17 -10 -32 -27 -46 -47z
" />
    <glyph glyph-name="A" unicode="A" 
d="M162 782h222v-69h-52l124 -644h46v-69h-180v69h46l-32 170h-145l-34 -170h49v-69h-175v69h47l125 644h-41v69zM206 316h115l-58 299z" />
    <glyph glyph-name="B" unicode="B" horiz-adv-x="427" 
d="M34 782h106c53 -1 160 7 219 -71c35 -48 45 -133 29 -191c-13 -45 -35 -79 -86 -104c53 -19 93 -61 108 -122c12 -49 8 -160 -43 -222c-61 -76 -177 -72 -250 -72h-83v69h61v644h-61v69zM178 446c15 0 30 2 41 4c41 7 69 28 85 67c14 35 15 113 -8 148
c-32 47 -58 48 -118 48v-267zM178 69c67 5 111 21 134 68c20 46 21 146 -3 186c-31 54 -80 57 -131 57v-311z" />
    <glyph glyph-name="C" unicode="C" horiz-adv-x="436" 
d="M353 753v40h71v-281h-72c0 46 2 160 -70 204c-22 13 -46 15 -73 0c-81 -45 -89 -245 -89 -300c0 -74 3 -284 86 -345c20 -15 49 -21 78 -7c61 30 76 131 76 167l75 -20c-17 -72 -50 -178 -137 -214c-42 -18 -91 -16 -130 10c-127 88 -133 290 -134 369
c-1 103 14 307 122 388c35 26 89 39 122 29c23 -6 51 -15 75 -40z" />
    <glyph glyph-name="D" unicode="D" horiz-adv-x="480" 
d="M139 782c108 0 204 -1 273 -124c76 -132 74 -410 -6 -541c-77 -128 -197 -117 -286 -117h-86v69h61v644h-61v69h105zM178 713v-644c79 0 108 12 143 64c72 104 69 333 39 439c-12 43 -38 109 -98 131c-29 11 -61 10 -84 10z" />
    <glyph glyph-name="E" unicode="E" horiz-adv-x="406" 
d="M383 782v-181h-74v112h-131v-271h55v90h74v-261h-74v98h-55v-300h142v135h74v-204h-360v69h61v644h-61v69h349z" />
    <glyph glyph-name="F" unicode="F" horiz-adv-x="395" 
d="M34 0v69h61v644h-61v69h349v-181h-74v112h-131v-271h55v90h74v-261h-74v98h-55v-300h61v-69h-205z" />
    <glyph glyph-name="G" unicode="G" horiz-adv-x="466" 
d="M350 726v62h73v-271h-73c0 42 3 162 -66 204c-27 16 -56 17 -81 -2c-51 -37 -69 -124 -79 -221c-6 -67 -4 -111 -1 -179c4 -101 26 -211 92 -255c19 -13 44 -14 66 -2c48 27 64 86 74 144c6 30 9 75 10 95h-148v69h237v-370h-81v60c-49 -70 -128 -93 -191 -61
c-116 58 -148 242 -148 366v38c0 73 13 289 127 366c40 28 86 37 128 17c23 -11 50 -41 61 -60z" />
    <glyph glyph-name="H" unicode="H" horiz-adv-x="495" 
d="M178 436h161v277h-61v69h205v-69h-61v-644h61v-69h-205v69h61v293h-161v-293h61v-69h-205v69h61v644h-61v69h205v-69h-61v-277z" />
    <glyph glyph-name="I" unicode="I" horiz-adv-x="251" 
d="M239 782v-69h-61v-644h61v-69h-205v69h61v644h-61v69h205z" />
    <glyph glyph-name="J" unicode="J" horiz-adv-x="272" 
d="M199 182c0 -78 -5 -179 -72 -218c-27 -16 -56 -16 -84 0c-7 4 -16 9 -24 17v71c18 -20 48 -27 65 -21c37 16 33 87 33 142v540h-61v69h204v-69h-61v-531z" />
    <glyph glyph-name="K" unicode="K" horiz-adv-x="494" 
d="M34 782h205v-69h-61v-274l143 274h-46v69h190v-69h-56l-155 -300l170 -344h58v-69h-203v69h45l-146 297v-297h61v-69h-205v69h61v644h-61v69z" />
    <glyph glyph-name="L" unicode="L" horiz-adv-x="399" 
d="M34 782h205v-69h-61v-644h142v139h68v-208h-354v69h61v644h-61v69z" />
    <glyph glyph-name="M" unicode="M" horiz-adv-x="571" 
d="M47 782h155l103 -472l113 472h140v-69h-48v-644h49v-69h-189v69h61v485l-126 -530h-15l-117 532v-487h50v-69h-189v69h61v644h-48v69z" />
    <glyph glyph-name="N" unicode="N" horiz-adv-x="498" 
d="M349 273v440h-61v69h195v-69h-61v-717h-53l-201 539v-466h61v-69h-195v69h61v644h-61v69h126z" />
    <glyph glyph-name="O" unicode="O" horiz-adv-x="465" 
d="M215 792c38 11 93 2 133 -34c119 -110 112 -401 94 -511c-7 -48 -39 -202 -139 -248c-41 -19 -87 -20 -131 6c-105 66 -133 227 -137 324c-3 85 -8 339 126 439c14 10 35 19 54 24zM190 702c-89 -90 -73 -383 -57 -477c9 -56 32 -138 88 -166c20 -10 42 -7 57 2
c68 39 86 178 91 242c7 77 6 336 -73 407c-21 18 -45 22 -66 17c-16 -4 -30 -14 -40 -25z" />
    <glyph glyph-name="P" unicode="P" horiz-adv-x="418" 
d="M141 782c84 0 173 1 225 -82c52 -80 50 -203 11 -280c-45 -89 -125 -99 -199 -100v-251h61v-69h-205v69h61v644h-61v69h107zM178 713v-322c49 1 93 3 116 51c26 54 31 170 -5 228c-10 16 -21 28 -45 36c-17 5 -43 7 -66 7z" />
    <glyph glyph-name="Q" unicode="Q" horiz-adv-x="465" 
d="M288 -7c47 -29 88 -40 143 -12v-65c-6 -7 -18 -13 -28 -16c-21 -4 -58 -3 -114 19l-19 7c-56 22 -91 29 -147 -2l-24 32c4 7 16 18 39 30c17 9 41 15 41 15c-120 71 -145 255 -145 357v18c0 92 7 314 136 398c43 28 105 32 155 1c79 -48 110 -175 120 -263
c9 -74 10 -177 0 -242c-16 -104 -51 -238 -157 -277zM190 702c-89 -90 -73 -383 -57 -477c9 -56 32 -138 88 -166c20 -10 42 -7 57 2c68 39 86 178 91 242c7 77 6 336 -73 407c-21 18 -45 22 -66 17c-16 -4 -30 -14 -40 -25z" />
    <glyph glyph-name="R" unicode="R" horiz-adv-x="455" 
d="M34 782h124c70 0 162 2 217 -88c35 -59 40 -181 3 -251c-25 -46 -64 -74 -107 -80l127 -294h45v-69h-106l-159 365v-296h61v-69h-205v69h61v644h-61v69zM178 412c25 0 41 2 49 4c41 10 66 24 83 64c21 46 18 148 -9 189c-32 49 -84 44 -123 44v-301z" />
    <glyph glyph-name="S" unicode="S" horiz-adv-x="374" 
d="M283 744v38h66v-246h-70c0 66 6 147 -55 180c-18 10 -42 12 -64 -1c-40 -23 -49 -79 -49 -114c0 -79 9 -97 101 -160l17 -12c104 -71 137 -130 133 -242c-3 -85 -29 -148 -90 -183c-27 -15 -74 -32 -126 -3c-9 4 -34 21 -44 34v-38h-68v254h68c0 -54 -7 -150 56 -188
c23 -13 53 -15 78 -2c38 20 50 73 52 123c2 58 -2 119 -105 179l-18 11c-120 70 -133 141 -131 236c2 57 22 132 91 169c37 20 77 26 119 2c11 -7 30 -25 39 -37z" />
    <glyph glyph-name="T" unicode="T" horiz-adv-x="414" 
d="M33 782h370v-219h-73v150h-71v-644h65v-69h-213v69h66v644h-71v-150h-73v219z" />
    <glyph glyph-name="U" unicode="U" 
d="M34 782h205v-69h-61v-485c0 -46 -5 -128 49 -161c24 -13 57 -10 77 0c55 32 49 165 49 174v472h-61v69h206v-69h-61v-465c0 -61 -2 -197 -91 -248c-45 -27 -114 -28 -160 -1c-90 52 -91 155 -91 247v467h-61v69z" />
    <glyph glyph-name="V" unicode="V" horiz-adv-x="481" 
d="M30 782h185v-69h-52l96 -510l89 510h-59v69h182v-69h-47l-131 -713h-77l-141 713h-45v69z" />
    <glyph glyph-name="W" unicode="W" horiz-adv-x="633" 
d="M27 782h182v-69h-56l61 -475l78 544h66l79 -539l60 470h-48v69h174v-69h-46l-105 -713h-63l-86 561l-80 -561h-68l-101 713h-47v69z" />
    <glyph glyph-name="X" unicode="X" horiz-adv-x="480" 
d="M34 782h194v-69h-50l70 -192l70 192h-47v69h184v-69h-54l-110 -306l127 -338h53v-69h-192v69h52l-83 221l-80 -221h50v-69h-184v69h51l121 335l-115 309h-57v69z" />
    <glyph glyph-name="Y" unicode="Y" horiz-adv-x="470" 
d="M31 782h191v-69h-54l77 -271l82 271h-51v69h182v-69h-52l-122 -394v-250h61v-69h-205v69h61v238l-122 406h-48v69z" />
    <glyph glyph-name="Z" unicode="Z" horiz-adv-x="370" 
d="M359 782v-58l-238 -655h168v143h69v-212h-324v52l240 661h-153v-135h-66v204h304z" />
    <glyph glyph-name="bracketleft" unicode="[" horiz-adv-x="227" 
d="M216 775v-43h-98v-827h98v-44h-181v914h181z" />
    <glyph glyph-name="backslash" unicode="\" horiz-adv-x="482" 
d="M470 -9h-49l-387 781h47z" />
    <glyph glyph-name="bracketright" unicode="]" horiz-adv-x="227" 
d="M215 775v-914h-181v44h99v827h-99v43h181z" />
    <glyph glyph-name="asciicircum" unicode="^" horiz-adv-x="323" 
d="M172 591c-18 -11 -69 -37 -93 -46c-17 -6 -27 -5 -34 1c-11 8 -14 16 -9 23c8 9 117 86 136 88c20 -2 130 -79 136 -88c6 -7 5 -15 -7 -23c-10 -6 -17 -7 -35 -1c-24 9 -75 35 -94 46z" />
    <glyph glyph-name="underscore" unicode="_" horiz-adv-x="572" 
d="M616 -162h-583v41h583v-41z" />
    <glyph glyph-name="grave" unicode="`" horiz-adv-x="257" 
d="M106 624l106 -43c20 -8 22 -11 19 -23c-7 -23 -9 -25 -17 -25s-118 29 -118 29c-31 8 -37 10 -34 24l9 27c6 23 19 17 35 11z" />
    <glyph glyph-name="a" unicode="a" horiz-adv-x="367" 
d="M313 56h42v-56h-104l-13 16c-39 -30 -87 -44 -128 -25c-54 26 -74 84 -76 136c-2 43 3 126 61 162c41 26 88 30 131 -1c-3 63 -12 113 -45 134c-34 21 -77 6 -111 -18l-20 54c56 32 138 39 181 10c61 -41 72 -116 74 -186zM111 112c7 -31 17 -50 42 -60c14 -5 35 -1 47 9
c30 21 33 70 32 94c0 32 -9 66 -36 84c-14 8 -30 8 -43 3c-48 -21 -48 -96 -42 -130z" />
    <glyph glyph-name="b" unicode="b" horiz-adv-x="398" 
d="M34 779h117v-333c41 38 90 49 130 34c65 -26 95 -99 101 -165c10 -96 7 -239 -67 -304c-28 -25 -71 -36 -102 -25c-25 9 -47 28 -62 48v-34h-117v56h42v668h-42v55zM151 218c0 -48 7 -139 56 -170c16 -11 34 -8 47 0c53 34 56 160 55 194c-1 61 -12 142 -55 166
c-16 8 -33 6 -45 -1c-47 -32 -58 -136 -58 -189z" />
    <glyph glyph-name="c" unicode="c" horiz-adv-x="336" 
d="M254 461l17 19h53v-197h-64c0 24 1 100 -42 130c-17 12 -38 12 -55 2c-42 -24 -48 -113 -51 -153c-2 -41 -2 -170 54 -206c14 -10 36 -10 53 -1c40 20 50 72 50 110l62 -34c-12 -59 -40 -118 -105 -143c-31 -12 -79 -9 -116 22c-84 69 -81 222 -70 296
c9 64 35 147 98 173c33 12 71 10 116 -18z" />
    <glyph glyph-name="d" unicode="d" horiz-adv-x="397" 
d="M344 779v-723h41v-56h-107v39c-16 -20 -36 -39 -71 -52c-30 -11 -72 -5 -99 18c-78 69 -80 242 -68 308c10 60 41 138 114 166c42 16 76 7 115 -30v275h-42v55h117zM107 190c5 -59 27 -125 63 -142c16 -7 34 -4 46 6c65 51 54 195 48 242c-4 34 -15 99 -55 117
c-16 8 -36 2 -49 -7c-56 -42 -55 -188 -53 -216z" />
    <glyph glyph-name="e" unicode="e" horiz-adv-x="361" 
d="M349 209h-238c1 -25 10 -108 46 -148c15 -16 37 -21 57 -12c40 20 55 70 61 107l64 -19c-18 -68 -47 -127 -122 -152c-33 -11 -92 3 -128 51c-16 22 -29 46 -38 72c-21 62 -22 147 -4 224c13 57 50 133 110 150c35 9 87 4 125 -31c60 -57 67 -159 67 -242zM212 418
c-15 7 -30 5 -42 -2c-42 -24 -53 -104 -55 -137h154c0 67 -22 121 -57 139z" />
    <glyph glyph-name="f" unicode="f" horiz-adv-x="224" 
d="M214 786v-78c-8 9 -32 14 -44 -1c-15 -19 -14 -52 -14 -96v-142h56v-56h-56v-357h56v-56h-178v56h47v357h-47v56h47v163c0 35 -3 109 50 141c18 12 46 13 83 13z" />
    <glyph glyph-name="g" unicode="g" horiz-adv-x="373" 
d="M272 437v32h110v-56h-48v-383c0 -50 1 -162 -77 -206c-55 -31 -132 -17 -186 18l37 51c30 -21 75 -40 109 -20c54 30 50 102 50 153c-31 -36 -71 -53 -113 -40c-60 18 -87 65 -106 126c-22 71 -23 251 44 328c31 35 68 50 103 45c33 -5 56 -24 77 -48zM108 177
c5 -40 17 -108 60 -127c20 -8 38 -3 50 8c56 43 46 208 42 249c-4 40 -14 94 -54 113c-19 8 -38 5 -51 -6c-59 -48 -52 -196 -47 -237z" />
    <glyph glyph-name="h" unicode="h" horiz-adv-x="389" 
d="M34 779h117v-341c45 34 98 63 142 40c38 -21 42 -64 42 -117v-305h42v-56h-159v56h42v293c0 26 1 48 -14 59c-5 4 -13 5 -20 5c-27 0 -55 -23 -75 -37v-320h42v-56h-159v56h42v668h-42v55z" />
    <glyph glyph-name="i" unicode="i" horiz-adv-x="204" 
d="M65 698h77v-120h-77v120zM34 469h117v-413h42v-56h-159v56h42v357h-42v56z" />
    <glyph glyph-name="j" unicode="j" horiz-adv-x="204" 
d="M34 469h127v-506c0 -74 -4 -125 -55 -151c-13 -7 -51 -10 -67 1v63c9 -9 24 -13 37 -3c11 7 10 30 10 61v479h-52v56zM80 698h77v-120h-77v120z" />
    <glyph glyph-name="k" unicode="k" horiz-adv-x="369" 
d="M34 779h117v-498l87 132h-44v56h155v-56h-29l-110 -158l112 -199h36v-56h-86l-121 213v-157h42v-56h-159v56h42v668h-42v55z" />
    <glyph glyph-name="l" unicode="l" horiz-adv-x="204" 
d="M34 779h117v-723h42v-56h-159v56h42v668h-42v55z" />
    <glyph glyph-name="m" unicode="m" horiz-adv-x="528" 
d="M408 308c0 57 2 87 -16 97c-9 4 -20 9 -39 -2c-15 -10 -25 -20 -40 -37v-310h33v-56h-142v56h34v252c0 57 2 87 -16 97c-9 4 -21 8 -39 -4c-15 -9 -26 -19 -41 -36v-309h34v-56h-142v56h33v357h-20v56h87v-42c34 40 89 69 125 56c18 -7 35 -30 43 -53c42 38 86 72 135 49
c50 -24 46 -111 46 -159v-264h33v-56h-141v56h33v252z" />
    <glyph glyph-name="n" unicode="n" horiz-adv-x="389" 
d="M34 469h109v-33c44 36 106 66 150 43c38 -21 42 -65 42 -118v-305h42v-56h-159v56h42v293c0 20 2 39 -12 58c-5 7 -17 9 -24 9c-27 0 -52 -19 -73 -37v-323h42v-56h-159v56h42v357h-42v56z" />
    <glyph glyph-name="o" unicode="o" horiz-adv-x="351" 
d="M186 486c45 1 92 -21 126 -85c41 -80 48 -253 -10 -344c-31 -50 -76 -77 -121 -75c-51 3 -92 35 -122 95c-46 92 -40 252 20 344c31 46 67 64 107 65zM131 373c-31 -67 -34 -209 -4 -274c14 -29 26 -44 49 -52c19 -6 37 1 47 13c49 57 44 219 36 268c-6 39 -25 75 -49 88
c-17 10 -34 6 -46 -1c-15 -8 -24 -22 -33 -42z" />
    <glyph glyph-name="p" unicode="p" horiz-adv-x="394" 
d="M151 20v-157h48v-56h-165v56h42v550h-42v56h111v-43c32 44 70 65 109 59c46 -6 78 -49 100 -100c37 -82 41 -248 -14 -334c-28 -45 -67 -69 -106 -69c-31 0 -57 13 -83 38zM152 263c-3 -56 -1 -178 50 -214c15 -12 29 -10 41 -4c53 27 63 149 64 173c2 24 -5 162 -51 193
c-18 12 -33 10 -46 3c-43 -24 -56 -107 -58 -151z" />
    <glyph glyph-name="q" unicode="q" horiz-adv-x="378" 
d="M339 -137h42v-56h-165v56h48v164c-40 -40 -74 -54 -117 -40c-57 18 -85 74 -100 128c-21 79 -23 247 48 327c30 34 66 48 100 43c15 -2 28 -9 39 -16c15 -10 28 -21 40 -39v39h114v-56h-49v-550zM109 195c6 -72 18 -123 61 -145c14 -6 29 -4 42 6c52 37 55 174 51 221
c-3 40 -15 121 -57 143c-18 7 -33 4 -44 -5c-52 -37 -58 -153 -53 -220z" />
    <glyph glyph-name="r" unicode="r" horiz-adv-x="252" 
d="M266 476l-20 -63c-85 0 -95 -76 -95 -152v-205h53v-56h-170v56h42v357h-42v56h108v-42c43 51 86 72 124 49z" />
    <glyph glyph-name="s" unicode="s" horiz-adv-x="287" 
d="M195 460l8 21h57v-164h-60c0 40 -5 73 -31 94c-9 9 -27 13 -38 9c-11 -5 -27 -15 -31 -38c-5 -22 -5 -50 13 -72c49 -54 113 -58 147 -128c21 -41 21 -104 -9 -149c-21 -31 -50 -49 -82 -51c-27 -1 -54 14 -78 34v-29h-57v175h58c0 -53 1 -89 35 -112c18 -11 39 -8 52 1
c23 19 25 42 23 73c-3 49 -34 54 -102 105c-52 39 -66 87 -66 137c0 44 17 98 68 115c35 12 68 3 93 -21z" />
    <glyph glyph-name="t" unicode="t" horiz-adv-x="223" 
d="M151 670v-201h59v-56h-59v-290c0 -34 -1 -64 12 -71c9 -5 22 -6 48 6v-67c-25 -11 -66 -17 -99 9c-38 31 -36 100 -36 143v270h-42v56h42v176z" />
    <glyph glyph-name="u" unicode="u" horiz-adv-x="389" 
d="M377 0h-109v33c-44 -36 -106 -66 -150 -43c-38 21 -42 65 -42 118v305h-42v56h117v-349c0 -20 -2 -39 12 -58c5 -7 17 -10 24 -10c27 0 52 20 73 38v323h-42v56h117v-413h42v-56z" />
    <glyph glyph-name="v" unicode="v" horiz-adv-x="392" 
d="M28 469h162v-56h-48l66 -279l59 279h-43v56h157v-56h-42l-98 -413h-76l-99 413h-38v56z" />
    <glyph glyph-name="w" unicode="w" horiz-adv-x="515" 
d="M27 469h154v-56h-46l51 -273l59 329h52l61 -323l41 267h-42v56h148v-56h-35l-86 -413h-59l-56 290l-54 -290h-67l-83 413h-38v56z" />
    <glyph glyph-name="x" unicode="x" horiz-adv-x="377" 
d="M187 469v-56h-38l51 -104l54 104h-35v56h145v-56h-39l-89 -175l89 -182h45v-56h-155v56h36l-54 108l-56 -108h37v-56h-147v56h39l92 180l-88 177h-43v56h156z" />
    <glyph glyph-name="y" unicode="y" horiz-adv-x="389" 
d="M28 469h151v-56h-41l71 -237l57 237h-40v56h150v-56h-40l-111 -437c-24 -92 -47 -152 -116 -166c-20 -4 -37 0 -48 7v62c18 -15 48 -14 66 5c16 17 24 44 51 157l-112 372h-38v56z" />
    <glyph glyph-name="z" unicode="z" horiz-adv-x="303" 
d="M46 469h245v-43l-178 -370h109v102h68v-158h-256v45l173 368h-92v-92h-69v148z" />
    <glyph glyph-name="braceleft" unicode="{" horiz-adv-x="430" 
d="M34 319c111 16 164 43 164 168v77c0 63 -6 116 57 165c42 32 108 45 164 45v-27c-120 -17 -152 -47 -152 -171v-76c0 -55 5 -108 -52 -150c-42 -31 -110 -46 -153 -52c43 -7 111 -22 153 -53c57 -42 52 -95 52 -150v-76c0 -124 32 -154 152 -171v-27
c-56 0 -122 13 -164 45c-63 49 -57 102 -57 165v77c0 125 -53 152 -164 168v43z" />
    <glyph glyph-name="bar" unicode="|" horiz-adv-x="87" 
d="M75 -155h-41v930h41v-930z" />
    <glyph glyph-name="braceright" unicode="}" horiz-adv-x="430" 
d="M419 277c-111 -16 -164 -43 -164 -168v-77c0 -63 6 -116 -57 -165c-42 -32 -108 -45 -164 -45v27c120 17 152 47 152 171v76c0 55 -5 108 52 150c41 31 110 46 153 53c-43 6 -112 21 -153 52c-57 42 -52 95 -52 150v76c0 124 -32 154 -152 171v27c56 0 122 -13 164 -45
c63 -49 57 -102 57 -165v-77c0 -125 53 -152 164 -168v-43z" />
    <glyph glyph-name="asciitilde" unicode="~" horiz-adv-x="308" 
d="M51 612c25 8 40 12 70 6c15 -3 29 -7 44 -10c50 -9 67 -11 113 1v-66c-24 -8 -38 -12 -68 -6c-15 4 -29 7 -44 10c-50 10 -69 11 -115 -1v66z" />
    <glyph glyph-name="Adieresis" unicode="&#xc4;" 
d="M162 782h222v-69h-52l124 -644h46v-69h-180v69h46l-32 170h-145l-34 -170h49v-69h-175v69h47l125 644h-41v69zM206 316h115l-58 299zM149 925h93v-90h-93v90zM300 925h93v-90h-93v90z" />
    <glyph glyph-name="Aring" unicode="&#xc5;" 
d="M162 782h222v-69h-52l124 -644h46v-69h-180v69h46l-32 170h-145l-34 -170h49v-69h-175v69h47l125 644h-41v69zM206 316h115l-58 299zM273 1016c50 0 92 -42 92 -92c0 -49 -42 -89 -92 -89c-49 0 -92 40 -92 89c0 50 43 92 92 92zM224 924c0 -27 22 -49 49 -49
c28 0 50 22 50 49c0 28 -22 50 -50 50c-27 0 -49 -22 -49 -50z" />
    <glyph glyph-name="Ccedilla" unicode="&#xc7;" horiz-adv-x="436" 
d="M215 -13c-16 4 -33 11 -47 20c-127 88 -133 290 -134 369c-1 103 14 307 122 388c35 26 89 39 122 29c23 -6 51 -15 75 -40v40h71v-281h-72c0 46 2 160 -70 204c-22 13 -46 15 -73 0c-81 -45 -89 -245 -89 -300c0 -74 3 -284 86 -345c20 -15 49 -21 78 -7
c61 30 76 131 76 167l75 -20c-17 -72 -50 -178 -137 -214c-12 -6 -24 -9 -36 -11l-7 -30c7 5 15 11 35 11c56 0 78 -57 78 -105c0 -40 -24 -110 -97 -110c-57 0 -87 50 -87 99l38 14c0 -31 17 -73 44 -73c7 0 16 1 22 7c24 19 25 54 25 71c0 19 -10 52 -31 60
c-9 5 -25 5 -35 -4c-11 -8 -16 -20 -21 -31l-31 14z" />
    <glyph glyph-name="Eacute" unicode="&#xc9;" horiz-adv-x="406" 
d="M383 782v-181h-74v112h-131v-271h55v90h74v-261h-74v98h-55v-300h142v135h74v-204h-360v69h61v644h-61v69h349zM264 926c17 5 29 12 36 -11l8 -27c4 -14 -3 -16 -34 -24c0 0 -109 -29 -118 -29c-7 0 -9 2 -17 25c-3 12 -1 15 19 23z" />
    <glyph glyph-name="Ntilde" unicode="&#xd1;" horiz-adv-x="498" 
d="M349 273v440h-61v69h195v-69h-61v-717h-53l-201 539v-466h61v-69h-195v69h61v644h-61v69h126zM142 913c25 8 41 12 71 6c15 -4 29 -7 44 -10c50 -10 63 -11 109 1v-66c-24 -8 -34 -12 -64 -6c-15 4 -29 7 -44 10c-50 10 -70 11 -116 -1v66z" />
    <glyph glyph-name="Odieresis" unicode="&#xd6;" horiz-adv-x="465" 
d="M215 792c38 11 93 2 133 -34c119 -110 112 -401 94 -511c-7 -48 -39 -202 -139 -248c-41 -19 -87 -20 -131 6c-105 66 -133 227 -137 324c-3 85 -8 339 126 439c14 10 35 19 54 24zM190 702c-89 -90 -73 -383 -57 -477c9 -56 32 -138 88 -166c20 -10 42 -7 57 2
c68 39 86 178 91 242c7 77 6 336 -73 407c-21 18 -45 22 -66 17c-16 -4 -30 -14 -40 -25zM124 936h93v-90h-93v90zM275 936h93v-90h-93v90z" />
    <glyph glyph-name="Udieresis" unicode="&#xdc;" 
d="M34 782h205v-69h-61v-485c0 -46 -5 -128 49 -161c24 -13 57 -10 77 0c55 32 49 165 49 174v472h-61v69h206v-69h-61v-465c0 -61 -2 -197 -91 -248c-45 -27 -114 -28 -160 -1c-90 52 -91 155 -91 247v467h-61v69zM143 925h94v-90h-94v90zM294 925h94v-90h-94v90z" />
    <glyph glyph-name="aacute" unicode="&#xe1;" horiz-adv-x="367" 
d="M313 56h42v-56h-104l-13 16c-39 -30 -87 -44 -128 -25c-54 26 -74 84 -76 136c-2 43 3 126 61 162c41 26 88 30 131 -1c-3 63 -12 113 -45 134c-34 21 -77 6 -111 -18l-20 54c56 32 138 39 181 10c61 -41 72 -116 74 -186zM111 112c7 -31 17 -50 42 -60c14 -5 35 -1 47 9
c30 21 33 70 32 94c0 32 -9 66 -36 84c-14 8 -30 8 -43 3c-48 -21 -48 -96 -42 -130zM217 624c16 6 29 12 36 -11l8 -27c3 -14 -3 -16 -34 -24c0 0 -109 -29 -118 -29c-7 0 -9 2 -17 25c-3 12 -1 15 19 23z" />
    <glyph glyph-name="agrave" unicode="&#xe0;" horiz-adv-x="367" 
d="M313 56h42v-56h-104l-13 16c-39 -30 -87 -44 -128 -25c-54 26 -74 84 -76 136c-2 43 3 126 61 162c41 26 88 30 131 -1c-3 63 -12 113 -45 134c-34 21 -77 6 -111 -18l-20 54c56 32 138 39 181 10c61 -41 72 -116 74 -186zM111 112c7 -31 17 -50 42 -60c14 -5 35 -1 47 9
c30 21 33 70 32 94c0 32 -9 66 -36 84c-14 8 -30 8 -43 3c-48 -21 -48 -96 -42 -130zM123 624l106 -43c20 -8 23 -11 19 -23c-7 -23 -9 -25 -17 -25s-118 29 -118 29c-31 8 -37 10 -34 24l9 27c6 23 19 17 35 11z" />
    <glyph glyph-name="acircumflex" unicode="&#xe2;" horiz-adv-x="367" 
d="M313 56h42v-56h-104l-13 16c-39 -30 -87 -44 -128 -25c-54 26 -74 84 -76 136c-2 43 3 126 61 162c41 26 88 30 131 -1c-3 63 -12 113 -45 134c-34 21 -77 6 -111 -18l-20 54c56 32 138 39 181 10c61 -41 72 -116 74 -186zM111 112c7 -31 17 -50 42 -60c14 -5 35 -1 47 9
c30 21 33 70 32 94c0 32 -9 66 -36 84c-14 8 -30 8 -43 3c-48 -21 -48 -96 -42 -130zM171 582c-18 -10 -68 -36 -92 -45c-17 -6 -27 -5 -34 2c-10 7 -13 16 -8 22c7 9 115 85 134 87c20 -2 128 -78 134 -87c5 -6 4 -15 -7 -22c-10 -7 -17 -8 -35 -2c-23 9 -73 35 -92 45z
" />
    <glyph glyph-name="adieresis" unicode="&#xe4;" horiz-adv-x="367" 
d="M313 56h42v-56h-104l-13 16c-39 -30 -87 -44 -128 -25c-54 26 -74 84 -76 136c-2 43 3 126 61 162c41 26 88 30 131 -1c-3 63 -12 113 -45 134c-34 21 -77 6 -111 -18l-20 54c56 32 138 39 181 10c61 -41 72 -116 74 -186zM111 112c7 -31 17 -50 42 -60c14 -5 35 -1 47 9
c30 21 33 70 32 94c0 32 -9 66 -36 84c-14 8 -30 8 -43 3c-48 -21 -48 -96 -42 -130zM39 623h93v-90h-93v90zM190 623h93v-90h-93v90z" />
    <glyph glyph-name="atilde" unicode="&#xe3;" horiz-adv-x="367" 
d="M313 56h42v-56h-104l-13 16c-39 -30 -87 -44 -128 -25c-54 26 -74 84 -76 136c-2 43 3 126 61 162c41 26 88 30 131 -1c-3 63 -12 113 -45 134c-34 21 -77 6 -111 -18l-20 54c56 32 138 39 181 10c61 -41 72 -116 74 -186zM111 112c7 -31 17 -50 42 -60c14 -5 35 -1 47 9
c30 21 33 70 32 94c0 32 -9 66 -36 84c-14 8 -30 8 -43 3c-48 -21 -48 -96 -42 -130zM57 609c24 8 39 12 69 6c15 -4 29 -7 44 -10c51 -10 69 -11 115 1v-66c-25 -8 -40 -12 -70 -6c-15 3 -29 7 -44 10c-50 10 -68 11 -114 -1v66z" />
    <glyph glyph-name="aring" unicode="&#xe5;" horiz-adv-x="367" 
d="M313 56h42v-56h-104l-13 16c-39 -30 -87 -44 -128 -25c-54 26 -74 84 -76 136c-2 43 3 126 61 162c41 26 88 30 131 -1c-3 63 -12 113 -45 134c-34 21 -77 6 -111 -18l-20 54c56 32 138 39 181 10c61 -41 72 -116 74 -186zM111 112c7 -31 17 -50 42 -60c14 -5 35 -1 47 9
c30 21 33 70 32 94c0 32 -9 66 -36 84c-14 8 -30 8 -43 3c-48 -21 -48 -96 -42 -130zM167 714c50 0 92 -42 92 -92c0 -49 -42 -89 -92 -89c-49 0 -92 40 -92 89c0 50 43 92 92 92zM118 622c0 -27 22 -49 49 -49c28 0 50 22 50 49c0 28 -22 50 -50 50c-27 0 -49 -22 -49 -50z
" />
    <glyph glyph-name="ccedilla" unicode="&#xe7;" horiz-adv-x="336" 
d="M254 461l17 19h53v-197h-64c0 24 1 100 -42 130c-17 12 -38 12 -55 2c-42 -24 -48 -113 -51 -153c-2 -41 -2 -170 54 -206c14 -10 36 -10 53 -1c40 20 50 72 50 110l62 -34c-12 -59 -40 -118 -105 -143c-31 -12 -79 -9 -116 22c-84 69 -81 222 -70 296
c9 64 35 147 98 173c33 12 71 10 116 -18zM212 0l-11 -44c8 5 15 11 36 11c55 0 78 -57 78 -105c0 -40 -25 -110 -98 -110c-56 0 -86 50 -86 99l37 14c0 -31 17 -73 44 -73c7 0 16 1 22 7c24 19 25 54 25 71c0 19 -10 52 -31 60c-9 5 -25 5 -34 -4c-12 -8 -16 -20 -22 -31
l-31 14l24 91h47z" />
    <glyph glyph-name="eacute" unicode="&#xe9;" horiz-adv-x="361" 
d="M349 209h-238c1 -25 10 -108 46 -148c15 -16 37 -21 57 -12c40 20 55 70 61 107l64 -19c-18 -68 -47 -127 -122 -152c-33 -11 -92 3 -128 51c-16 22 -29 46 -38 72c-21 62 -22 147 -4 224c13 57 50 133 110 150c35 9 87 4 125 -31c60 -57 67 -159 67 -242zM212 418
c-15 7 -30 5 -42 -2c-42 -24 -53 -104 -55 -137h154c0 67 -22 121 -57 139zM239 624c16 6 29 12 35 -11l9 -27c3 -14 -4 -16 -35 -24c0 0 -109 -29 -117 -29s-10 2 -18 25c-3 12 -1 15 20 23z" />
    <glyph glyph-name="egrave" unicode="&#xe8;" horiz-adv-x="361" 
d="M349 209h-238c1 -25 10 -108 46 -148c15 -16 37 -21 57 -12c40 20 55 70 61 107l64 -19c-18 -68 -47 -127 -122 -152c-33 -11 -92 3 -128 51c-16 22 -29 46 -38 72c-21 62 -22 147 -4 224c13 57 50 133 110 150c35 9 87 4 125 -31c60 -57 67 -159 67 -242zM212 418
c-15 7 -30 5 -42 -2c-42 -24 -53 -104 -55 -137h154c0 67 -22 121 -57 139zM155 624l106 -43c21 -8 23 -11 20 -23c-8 -23 -10 -25 -18 -25s-117 29 -117 29c-31 8 -38 10 -35 24l9 27c6 23 19 17 35 11z" />
    <glyph glyph-name="ecircumflex" unicode="&#xea;" horiz-adv-x="361" 
d="M349 209h-238c1 -25 10 -108 46 -148c15 -16 37 -21 57 -12c40 20 55 70 61 107l64 -19c-18 -68 -47 -127 -122 -152c-33 -11 -92 3 -128 51c-16 22 -29 46 -38 72c-21 62 -22 147 -4 224c13 57 50 133 110 150c35 9 87 4 125 -31c60 -57 67 -159 67 -242zM212 418
c-15 7 -30 5 -42 -2c-42 -24 -53 -104 -55 -137h154c0 67 -22 121 -57 139zM192 582c-19 -10 -69 -36 -92 -45c-18 -6 -27 -5 -35 2c-9 7 -13 16 -7 22c6 9 114 85 134 87c19 -2 127 -78 133 -87c6 -6 5 -15 -7 -22c-10 -7 -17 -8 -34 -2c-24 9 -74 35 -92 45z" />
    <glyph glyph-name="edieresis" unicode="&#xeb;" horiz-adv-x="361" 
d="M349 209h-238c1 -25 10 -108 46 -148c15 -16 37 -21 57 -12c40 20 55 70 61 107l64 -19c-18 -68 -47 -127 -122 -152c-33 -11 -92 3 -128 51c-16 22 -29 46 -38 72c-21 62 -22 147 -4 224c13 57 50 133 110 150c35 9 87 4 125 -31c60 -57 67 -159 67 -242zM212 418
c-15 7 -30 5 -42 -2c-42 -24 -53 -104 -55 -137h154c0 67 -22 121 -57 139zM67 622h94v-90h-94v90zM218 622h94v-90h-94v90z" />
    <glyph glyph-name="iacute" unicode="&#xed;" horiz-adv-x="204" 
d="M34 469h117v-413h42v-56h-159v56h42v357h-42v56zM127 624c16 6 29 12 36 -11l8 -27c4 -14 -3 -16 -34 -24c0 0 -109 -29 -118 -29c-7 0 -9 2 -17 25c-3 12 -1 15 19 23z" />
    <glyph glyph-name="igrave" unicode="&#xec;" horiz-adv-x="204" 
d="M34 469h117v-413h42v-56h-159v56h42v357h-42v56zM52 624l106 -43c21 -8 23 -11 20 -23c-8 -23 -10 -25 -17 -25c-9 0 -118 29 -118 29c-31 8 -38 10 -34 24l8 27c7 23 19 17 35 11z" />
    <glyph glyph-name="icircumflex" unicode="&#xee;" horiz-adv-x="204" 
d="M34 469h117v-413h42v-56h-159v56h42v357h-42v56zM103 582c-18 -10 -69 -36 -92 -45c-17 -6 -27 -5 -35 2c-9 7 -12 16 -7 22c6 9 115 85 134 87c19 -2 127 -78 134 -87c5 -6 4 -15 -8 -22c-10 -7 -17 -8 -34 -2c-24 9 -74 35 -92 45z" />
    <glyph glyph-name="idieresis" unicode="&#xef;" horiz-adv-x="204" 
d="M34 469h117v-413h42v-56h-159v56h42v357h-42v56zM-32 623h93v-90h-93v90zM119 623h93v-90h-93v90z" />
    <glyph glyph-name="ntilde" unicode="&#xf1;" horiz-adv-x="389" 
d="M77 611c25 8 43 12 73 6c15 -4 26 -7 41 -10c50 -10 68 -11 114 1v-66c-24 -8 -39 -12 -69 -6c-15 4 -29 7 -44 10c-51 10 -69 11 -115 -1v66zM34 469h109v-33c44 36 106 66 150 43c38 -21 42 -65 42 -118v-305h42v-56h-159v56h42v293c0 20 2 39 -12 58c-5 7 -17 9 -24 9
c-27 0 -52 -19 -73 -37v-323h42v-56h-159v56h42v357h-42v56z" />
    <glyph glyph-name="oacute" unicode="&#xf3;" horiz-adv-x="351" 
d="M186 486c45 1 92 -21 126 -85c41 -80 48 -253 -10 -344c-31 -50 -76 -77 -121 -75c-51 3 -92 35 -122 95c-46 92 -40 252 20 344c31 46 67 64 107 65zM131 373c-31 -67 -34 -209 -4 -274c14 -29 26 -44 49 -52c19 -6 37 1 47 13c49 57 44 219 36 268c-6 39 -25 75 -49 88
c-17 10 -34 6 -46 -1c-15 -8 -24 -22 -33 -42zM226 624c16 6 29 12 35 -11l9 -27c3 -14 -3 -16 -34 -24c0 0 -110 -29 -118 -29s-10 2 -17 25c-4 12 -1 15 19 23z" />
    <glyph glyph-name="ograve" unicode="&#xf2;" horiz-adv-x="351" 
d="M186 486c45 1 92 -21 126 -85c41 -80 48 -253 -10 -344c-31 -50 -76 -77 -121 -75c-51 3 -92 35 -122 95c-46 92 -40 252 20 344c31 46 67 64 107 65zM131 373c-31 -67 -34 -209 -4 -274c14 -29 26 -44 49 -52c19 -6 37 1 47 13c49 57 44 219 36 268c-6 39 -25 75 -49 88
c-17 10 -34 6 -46 -1c-15 -8 -24 -22 -33 -42zM135 624l106 -43c20 -8 22 -11 19 -23c-7 -23 -9 -25 -17 -25c-9 0 -118 29 -118 29c-31 8 -37 10 -34 24l9 27c6 23 19 17 35 11z" />
    <glyph glyph-name="ocircumflex" unicode="&#xf4;" horiz-adv-x="351" 
d="M186 486c45 1 92 -21 126 -85c41 -80 48 -253 -10 -344c-31 -50 -76 -77 -121 -75c-51 3 -92 35 -122 95c-46 92 -40 252 20 344c31 46 67 64 107 65zM131 373c-31 -67 -34 -209 -4 -274c14 -29 26 -44 49 -52c19 -6 37 1 47 13c49 57 44 219 36 268c-6 39 -25 75 -49 88
c-17 10 -34 6 -46 -1c-15 -8 -24 -22 -33 -42zM185 582c-18 -10 -68 -36 -92 -45c-17 -6 -27 -5 -34 2c-10 7 -13 16 -8 22c7 9 115 85 134 87c19 -2 128 -78 134 -87c5 -6 4 -15 -7 -22c-10 -7 -18 -8 -35 -2c-23 9 -74 35 -92 45z" />
    <glyph glyph-name="odieresis" unicode="&#xf6;" horiz-adv-x="351" 
d="M186 486c45 1 92 -21 126 -85c41 -80 48 -253 -10 -344c-31 -50 -76 -77 -121 -75c-51 3 -92 35 -122 95c-46 92 -40 252 20 344c31 46 67 64 107 65zM131 373c-31 -67 -34 -209 -4 -274c14 -29 26 -44 49 -52c19 -6 37 1 47 13c49 57 44 219 36 268c-6 39 -25 75 -49 88
c-17 10 -34 6 -46 -1c-15 -8 -24 -22 -33 -42zM64 623h93v-90h-93v90zM215 623h93v-90h-93v90z" />
    <glyph glyph-name="otilde" unicode="&#xf5;" horiz-adv-x="351" 
d="M186 486c45 1 92 -21 126 -85c41 -80 48 -253 -10 -344c-31 -50 -76 -77 -121 -75c-51 3 -92 35 -122 95c-46 92 -40 252 20 344c31 46 67 64 107 65zM131 373c-31 -67 -34 -209 -4 -274c14 -29 26 -44 49 -52c19 -6 37 1 47 13c49 57 44 219 36 268c-6 39 -25 75 -49 88
c-17 10 -34 6 -46 -1c-15 -8 -24 -22 -33 -42zM78 611c25 8 40 12 70 6c15 -4 29 -7 44 -10c50 -10 68 -11 114 1v-66c-24 -8 -39 -12 -69 -6c-15 4 -29 7 -44 10c-51 10 -69 11 -115 -1v66z" />
    <glyph glyph-name="uacute" unicode="&#xfa;" horiz-adv-x="389" 
d="M377 0h-109v33c-44 -36 -106 -66 -150 -43c-38 21 -42 65 -42 118v305h-42v56h117v-349c0 -20 -2 -39 12 -58c5 -7 17 -10 24 -10c27 0 52 20 73 38v323h-42v56h117v-413h42v-56zM237 624c16 6 29 12 35 -11l9 -27c3 -14 -4 -16 -35 -24c0 0 -109 -29 -118 -29
c-7 0 -9 2 -17 25c-3 12 -1 15 20 23z" />
    <glyph glyph-name="ugrave" unicode="&#xf9;" horiz-adv-x="389" 
d="M377 0h-109v33c-44 -36 -106 -66 -150 -43c-38 21 -42 65 -42 118v305h-42v56h117v-349c0 -20 -2 -39 12 -58c5 -7 17 -10 24 -10c27 0 52 20 73 38v323h-42v56h117v-413h42v-56zM138 624l106 -43c20 -8 23 -11 19 -23c-7 -23 -9 -25 -17 -25s-118 29 -118 29
c-31 8 -37 10 -34 24l9 27c6 23 19 17 35 11z" />
    <glyph glyph-name="ucircumflex" unicode="&#xfb;" horiz-adv-x="389" 
d="M377 0h-109v33c-44 -36 -106 -66 -150 -43c-38 21 -42 65 -42 118v305h-42v56h117v-349c0 -20 -2 -39 12 -58c5 -7 17 -10 24 -10c27 0 52 20 73 38v323h-42v56h117v-413h42v-56zM185 582c-18 -10 -68 -36 -92 -45c-17 -6 -27 -5 -34 2c-10 7 -13 16 -8 22
c7 9 115 85 134 87c19 -2 128 -78 134 -87c5 -6 4 -15 -7 -22c-10 -7 -18 -8 -35 -2c-23 9 -74 35 -92 45z" />
    <glyph glyph-name="udieresis" unicode="&#xfc;" horiz-adv-x="389" 
d="M377 0h-109v33c-44 -36 -106 -66 -150 -43c-38 21 -42 65 -42 118v305h-42v56h117v-349c0 -20 -2 -39 12 -58c5 -7 17 -10 24 -10c27 0 52 20 73 38v323h-42v56h117v-413h42v-56zM62 623h93v-90h-93v90zM213 623h93v-90h-93v90z" />
    <glyph glyph-name="degree" unicode="&#xb0;" horiz-adv-x="158" 
d="M34 570c0 31 25 54 56 54s57 -23 57 -54s-26 -55 -57 -55s-56 24 -56 55zM90 529c22 0 42 18 42 41c0 22 -20 40 -42 40c-23 0 -41 -18 -41 -40c0 -23 18 -41 41 -41zM147 570v0v0v0z" />
    <glyph glyph-name="cent" unicode="&#xa2;" horiz-adv-x="336" 
d="M166 658v63h49v-68c12 -4 25 -10 39 -18l17 18h53v-197h-64c0 25 1 101 -42 131l-3 2v-363l4 2c40 20 50 73 50 110l62 -34c-12 -59 -41 -118 -105 -142c0 0 -5 -2 -11 -4v-61h-49v60c-16 1 -38 12 -55 26c-84 70 -82 223 -71 297c5 38 35 145 99 172c8 3 17 6 27 6z
M166 229v362l-3 -2c-42 -25 -48 -114 -51 -153c-2 -42 -2 -170 54 -207z" />
    <glyph glyph-name="sterling" unicode="&#xa3;" horiz-adv-x="495" 
d="M166 88c-35 22 -72 14 -72 -22c0 -14 10 -29 24 -31c28 -4 46 26 48 53zM170 363c-33 111 -88 207 -67 289c13 50 43 93 96 111c41 14 88 10 129 -18c68 -47 85 -152 85 -214l-76 -17c0 51 -1 121 -34 162c-19 23 -43 27 -61 27c-32 -4 -55 -25 -64 -54
c-30 -90 38 -175 62 -286h122v-58h-114c3 -44 4 -130 -8 -177c23 -10 74 -74 121 -74c45 0 51 57 51 83l71 12c2 -114 -50 -171 -126 -171c-74 0 -119 64 -135 73c-14 -37 -38 -75 -106 -75c-46 0 -82 39 -82 85c0 67 47 124 146 90c0 0 8 90 0 154h-81v58h71z" />
    <glyph glyph-name="bullet" unicode="&#x2022;" horiz-adv-x="123" 
d="M34 426h77v-110h-77v110z" />
    <glyph glyph-name="germandbls" unicode="&#xdf;" horiz-adv-x="364" 
d="M248 394c96 -49 112 -145 101 -232c-7 -62 -43 -136 -119 -168c-28 -12 -70 -15 -97 -8v72c31 -14 64 -17 93 5c51 40 55 137 51 180c-2 33 -11 79 -56 106c-27 16 -58 12 -84 6v72c31 -7 71 -8 99 23c37 39 39 130 31 174c-7 32 -25 63 -55 75c-20 8 -43 7 -62 -7
c-44 -32 -42 -103 -42 -157v-535h-74v539c0 85 -5 152 79 208c34 23 96 28 141 4c74 -41 91 -110 91 -173c0 -56 -16 -139 -97 -184z" />
    <glyph glyph-name="acute" unicode="&#xb4;" horiz-adv-x="257" 
d="M163 624c16 6 29 12 35 -11l9 -27c3 -14 -4 -16 -35 -24c0 0 -109 -29 -117 -29s-10 2 -18 25c-3 12 -1 15 20 23z" />
    <glyph glyph-name="dieresis" unicode="&#xa8;" horiz-adv-x="245" 
d="M34 602h72v-69h-72v69zM151 602h72v-69h-72v69z" />
    <glyph glyph-name="AE" unicode="&#xc6;" horiz-adv-x="664" 
d="M213 782h428v-181h-74v112h-131v-271h55v90h74v-261h-74v98h-55v-300h142v135h74v-204h-347v69h48v174h-154l-50 -174h52v-69h-177v69h41l188 644h-40v69zM222 320h131v393h-17z" />
    <glyph glyph-name="Oslash" unicode="&#xd8;" horiz-adv-x="465" 
d="M406 670c59 -134 50 -335 36 -423c-7 -47 -39 -202 -139 -248c-41 -19 -87 -20 -131 6c-18 12 -34 27 -49 43l-27 -59h-67l55 121c-35 73 -47 158 -49 219c-3 86 -8 339 126 439c14 10 35 19 54 24c38 11 94 2 133 -34c7 -6 14 -14 20 -22l23 50h67zM161 131
c11 -28 31 -59 60 -72c21 -10 42 -7 57 2c68 39 86 179 91 242c5 48 6 162 -12 259zM331 654c-9 23 -22 43 -35 56c-21 18 -45 22 -66 17c-16 -4 -30 -14 -40 -25c-89 -90 -73 -383 -57 -477l1 -6z" />
    <glyph glyph-name="infinity" unicode="&#x221e;" horiz-adv-x="389" 
d="M28 469h151v-56h-41l71 -237l57 237h-40v56h150v-56h-40l-111 -437c-24 -92 -47 -152 -116 -166c-20 -4 -37 0 -48 7v62c18 -15 48 -14 66 5c16 17 24 44 51 157l-112 372h-38v56zM253 624c16 6 29 12 35 -11l9 -27c3 -14 -4 -16 -35 -24c0 0 -109 -29 -117 -29
s-10 2 -18 25c-3 12 -1 15 20 23z" />
    <glyph glyph-name="ae" unicode="&#xe6;" horiz-adv-x="550" 
d="M279 427c52 54 98 72 148 51c104 -44 110 -205 112 -272h-234c0 -41 4 -134 60 -158c20 -8 44 -6 64 11c29 25 38 61 46 96l62 -17c-19 -64 -46 -125 -117 -150c-35 -12 -73 -7 -112 19c-17 12 -26 22 -42 42c-37 -48 -80 -73 -125 -66c-33 4 -68 29 -87 67
c-24 49 -29 147 2 202c20 35 55 60 89 63c26 2 52 -2 83 -22c0 38 3 98 -36 126c-35 24 -77 14 -118 -13l-17 57c55 23 126 35 174 6c23 -13 38 -29 48 -42zM419 409c-19 15 -39 12 -52 6c-48 -22 -60 -99 -62 -140h162c-2 33 -9 103 -48 134zM108 157c0 -33 7 -68 37 -95
c9 -8 34 -8 51 1c35 22 37 65 36 94c-1 36 -9 71 -38 86c-18 10 -38 8 -49 0c-32 -19 -37 -60 -37 -86z" />
    <glyph glyph-name="oslash" unicode="&#xf8;" horiz-adv-x="351" 
d="M304 416c2 -4 5 -10 8 -15c41 -79 48 -253 -10 -344c-31 -50 -75 -77 -121 -75c-30 1 -57 14 -79 35l-13 -27h-60l36 74c-2 5 -4 9 -6 13c-46 93 -40 252 20 344c31 46 69 64 102 65c32 1 62 -8 86 -27l10 23h60zM136 84c10 -19 20 -30 40 -37c19 -6 37 1 47 13
c49 57 44 219 36 268zM233 395c-6 9 -15 17 -23 21c-18 10 -34 6 -46 -1c-15 -8 -24 -22 -33 -42c-24 -52 -31 -148 -20 -219z" />
    <glyph glyph-name="radical" unicode="&#x221a;" horiz-adv-x="323" 
d="M170 597c18 11 69 37 92 45c17 7 25 6 35 -1c11 -7 12 -16 7 -22c-6 -9 -114 -85 -134 -87c-19 2 -127 78 -134 87c-5 6 -2 15 8 22c7 7 17 8 34 1c24 -8 74 -34 92 -45z" />
    <glyph glyph-name="Agrave" unicode="&#xc0;" 
d="M162 782h222v-69h-52l124 -644h46v-69h-180v69h46l-32 170h-145l-34 -170h49v-69h-175v69h47l125 644h-41v69zM206 316h115l-58 299zM233 926l106 -43c21 -8 23 -11 20 -23c-8 -23 -10 -25 -17 -25c-9 0 -118 29 -118 29c-31 8 -38 10 -34 24l8 27c6 23 19 16 35 11z" />
    <glyph glyph-name="Atilde" unicode="&#xc3;" 
d="M162 782h222v-69h-52l124 -644h46v-69h-180v69h46l-32 170h-145l-34 -170h49v-69h-175v69h47l125 644h-41v69zM206 316h115l-58 299zM155 913c25 8 40 12 70 6c15 -4 29 -7 44 -10c50 -10 68 -11 114 1v-66c-24 -8 -39 -12 -69 -6c-15 4 -29 7 -44 10
c-51 10 -69 11 -115 -1v66z" />
    <glyph glyph-name="Otilde" unicode="&#xd5;" horiz-adv-x="465" 
d="M215 792c38 11 93 2 133 -34c119 -110 112 -401 94 -511c-7 -48 -39 -202 -139 -248c-41 -19 -87 -20 -131 6c-105 66 -133 227 -137 324c-3 85 -8 339 126 439c14 10 35 19 54 24zM190 702c-89 -90 -73 -383 -57 -477c9 -56 32 -138 88 -166c20 -10 42 -7 57 2
c68 39 86 178 91 242c7 77 6 336 -73 407c-21 18 -45 22 -66 17c-16 -4 -30 -14 -40 -25zM132 913c24 8 39 12 69 6c15 -4 29 -7 44 -10c51 -10 69 -11 115 1v-66c-25 -8 -40 -12 -70 -6c-15 4 -29 7 -44 10c-50 10 -68 11 -114 -1v66z" />
    <glyph glyph-name="OE" unicode="&#x152;" horiz-adv-x="631" 
d="M608 782v-181h-74v112h-131v-271h55v90h74v-261h-74v98h-55v-300h142v135h74v-204h-315c-15 -7 -31 -14 -57 -15c-22 -1 -70 2 -123 62c-65 75 -89 200 -90 316c-1 98 9 174 24 230c19 74 61 169 146 196c27 9 56 13 98 -3c5 -2 7 -2 12 -4h294zM180 691
c-24 -31 -42 -84 -50 -146c-18 -127 -9 -291 13 -367c14 -47 35 -99 81 -120c19 -10 48 -6 64 9s26 25 32 40v571c-7 16 -18 26 -30 36c-20 16 -46 18 -66 11c-11 -4 -28 -13 -44 -34z" />
    <glyph glyph-name="oe" unicode="&#x153;" horiz-adv-x="595" 
d="M309 60c-31 -51 -78 -80 -123 -78c-51 3 -92 35 -122 95c-46 92 -39 252 21 344c31 46 61 64 101 65c45 1 98 -18 127 -76c18 33 45 62 79 72c34 9 87 4 124 -31c60 -57 68 -159 68 -242h-238c1 -25 9 -115 46 -148c15 -14 36 -21 57 -12c39 20 54 70 61 107l64 -19
c-18 -68 -47 -127 -122 -152c-33 -11 -91 1 -128 51zM446 418c-15 7 -30 5 -41 -2c-42 -24 -54 -104 -56 -137h154c0 67 -21 121 -57 139zM136 373c-31 -67 -33 -209 -3 -274c14 -29 25 -44 48 -52c19 -6 37 1 47 13c49 57 44 219 36 268c-6 39 -24 75 -49 88
c-17 10 -34 6 -46 -1c-15 -8 -23 -22 -33 -42z" />
    <glyph glyph-name="endash" unicode="&#x2013;" horiz-adv-x="491" 
d="M34 314h446v-63h-446v63z" />
    <glyph glyph-name="emdash" unicode="&#x2014;" horiz-adv-x="580" 
d="M34 314h535v-63h-535v63z" />
    <glyph glyph-name="quotedblleft" unicode="&#x201c;" horiz-adv-x="317" 
d="M177 511h-46l-97 271h70zM305 511h-46l-96 271h69z" />
    <glyph glyph-name="quotedblright" unicode="&#x201d;" horiz-adv-x="317" 
d="M236 782h69l-96 -271h-46zM107 782h70l-97 -271h-46z" />
    <glyph glyph-name="quoteleft" unicode="&#x2018;" horiz-adv-x="188" 
d="M177 511h-46l-97 271h70z" />
    <glyph glyph-name="quoteright" unicode="&#x2019;" horiz-adv-x="188" 
d="M107 782h70l-97 -271h-46z" />
    <glyph glyph-name="ydieresis" unicode="&#xff;" horiz-adv-x="389" 
d="M28 469h151v-56h-41l71 -237l57 237h-40v56h150v-56h-40l-111 -437c-24 -92 -47 -152 -116 -166c-20 -4 -37 0 -48 7v62c18 -15 48 -14 66 5c16 17 24 44 51 157l-112 372h-38v56zM76 623h93v-90h-93v90zM227 623h93v-90h-93v90z" />
    <glyph glyph-name="Ydieresis" unicode="&#x178;" horiz-adv-x="470" 
d="M31 782h191v-69h-54l77 -271l82 271h-51v69h182v-69h-52l-122 -394v-250h61v-69h-205v69h61v238l-122 406h-48v69zM292 926c16 5 29 12 36 -11l8 -27c3 -14 -3 -16 -34 -24c0 0 -109 -29 -118 -29c-7 0 -9 2 -17 25c-3 12 -1 15 19 23z" />
    <glyph glyph-name="fraction" unicode="&#x2044;" horiz-adv-x="470" 
d="M31 782h191v-69h-54l77 -271l82 271h-51v69h182v-69h-52l-122 -394v-250h61v-69h-205v69h61v238l-122 406h-48v69zM125 925h93v-90h-93v90zM276 925h93v-90h-93v90z" />
    <glyph glyph-name="periodcentered" unicode="&#xb7;" horiz-adv-x="214" 
d="M105 0l-11 -44c8 5 15 11 36 11c55 0 78 -57 78 -105c0 -40 -25 -110 -98 -110c-56 0 -86 50 -86 99l37 14c0 -31 17 -73 44 -73c7 0 16 1 22 7c24 19 25 54 25 71c0 19 -10 52 -31 60c-9 5 -25 5 -34 -4c-12 -8 -16 -20 -22 -31l-31 14l24 91h47z" />
    <glyph glyph-name="Acircumflex" unicode="&#xc2;" 
d="M162 782h222v-69h-52l124 -644h46v-69h-180v69h46l-32 170h-145l-34 -170h49v-69h-175v69h47l125 644h-41v69zM206 316h115l-58 299zM273 884c-18 -10 -69 -36 -92 -45c-17 -6 -27 -5 -34 1c-10 8 -13 17 -8 23c7 9 115 85 134 87c19 -2 127 -78 134 -87
c5 -6 4 -15 -8 -23c-9 -6 -17 -7 -34 -1c-23 9 -74 35 -92 45z" />
    <glyph glyph-name="Ecircumflex" unicode="&#xca;" horiz-adv-x="406" 
d="M383 782v-181h-74v112h-131v-271h55v90h74v-261h-74v98h-55v-300h142v135h74v-204h-360v69h61v644h-61v69h349zM213 884c-18 -10 -68 -36 -92 -45c-17 -6 -27 -5 -34 1c-10 8 -13 17 -8 23c7 9 115 85 134 87c19 -2 127 -78 134 -87c5 -6 4 -15 -8 -23
c-9 -6 -17 -7 -34 -1c-23 9 -74 35 -92 45z" />
    <glyph glyph-name="Aacute" unicode="&#xc1;" 
d="M162 782h222v-69h-52l124 -644h46v-69h-180v69h46l-32 170h-145l-34 -170h49v-69h-175v69h47l125 644h-41v69zM206 316h115l-58 299zM313 926c16 5 29 12 35 -11l9 -27c3 -14 -4 -16 -35 -24c0 0 -109 -29 -118 -29c-7 0 -9 2 -17 25c-3 12 -1 15 20 23z" />
    <glyph glyph-name="Edieresis" unicode="&#xcb;" horiz-adv-x="406" 
d="M383 782v-181h-74v112h-131v-271h55v90h74v-261h-74v98h-55v-300h142v135h74v-204h-360v69h61v644h-61v69h349zM93 924h93v-90h-93v90zM244 924h93v-90h-93v90z" />
    <glyph glyph-name="Egrave" unicode="&#xc8;" horiz-adv-x="406" 
d="M383 782v-181h-74v112h-131v-271h55v90h74v-261h-74v98h-55v-300h142v135h74v-204h-360v69h61v644h-61v69h349zM154 926l106 -43c21 -8 23 -11 19 -23c-7 -23 -9 -25 -17 -25s-117 29 -117 29c-32 8 -38 10 -35 24l9 27c6 23 19 16 35 11z" />
    <glyph glyph-name="Iacute" unicode="&#xcd;" horiz-adv-x="251" 
d="M239 782v-69h-61v-644h61v-69h-205v69h61v644h-61v69h205zM178 926c16 5 29 12 35 -11l9 -27c3 -14 -4 -16 -35 -24c0 0 -109 -29 -117 -29s-10 2 -18 25c-3 12 -1 15 20 23z" />
    <glyph glyph-name="Icircumflex" unicode="&#xce;" horiz-adv-x="251" 
d="M239 782v-69h-61v-644h61v-69h-205v69h61v644h-61v69h205zM135 884c-18 -10 -69 -36 -92 -45c-17 -6 -27 -5 -34 1c-10 8 -13 17 -8 23c6 9 115 85 134 87c19 -2 127 -78 134 -87c5 -6 4 -15 -8 -23c-9 -6 -17 -7 -34 -1c-24 9 -74 35 -92 45z" />
    <glyph glyph-name="Idieresis" unicode="&#xcf;" horiz-adv-x="251" 
d="M239 782v-69h-61v-644h61v-69h-205v69h61v644h-61v69h205zM12 924h93v-90h-93v90zM163 924h93v-90h-93v90z" />
    <glyph glyph-name="Igrave" unicode="&#xcc;" horiz-adv-x="251" 
d="M239 782v-69h-61v-644h61v-69h-205v69h61v644h-61v69h205zM97 926l106 -43c21 -8 23 -11 20 -23c-8 -23 -10 -25 -17 -25c-9 0 -118 29 -118 29c-31 8 -38 10 -34 24l8 27c7 23 19 16 35 11z" />
    <glyph glyph-name="Oacute" unicode="&#xd3;" horiz-adv-x="465" 
d="M215 792c38 11 93 2 133 -34c119 -110 112 -401 94 -511c-7 -48 -39 -202 -139 -248c-41 -19 -87 -20 -131 6c-105 66 -133 227 -137 324c-3 85 -8 339 126 439c14 10 35 19 54 24zM190 702c-89 -90 -73 -383 -57 -477c9 -56 32 -138 88 -166c20 -10 42 -7 57 2
c68 39 86 178 91 242c7 77 6 336 -73 407c-21 18 -45 22 -66 17c-16 -4 -30 -14 -40 -25zM310 937c17 5 29 12 36 -11l8 -28c4 -14 -3 -16 -34 -23c0 0 -109 -29 -118 -29c-7 0 -9 2 -17 24c-3 12 -1 15 19 24z" />
    <glyph glyph-name="Ocircumflex" unicode="&#xd4;" horiz-adv-x="465" 
d="M215 792c38 11 93 2 133 -34c119 -110 112 -401 94 -511c-7 -48 -39 -202 -139 -248c-41 -19 -87 -20 -131 6c-105 66 -133 227 -137 324c-3 85 -8 339 126 439c14 10 35 19 54 24zM190 702c-89 -90 -73 -383 -57 -477c9 -56 32 -138 88 -166c20 -10 42 -7 57 2
c68 39 86 178 91 242c7 77 6 336 -73 407c-21 18 -45 22 -66 17c-16 -4 -30 -14 -40 -25zM234 895c-18 -11 -68 -36 -92 -45c-17 -6 -26 -5 -34 1c-9 8 -13 16 -7 23c6 8 114 84 133 86c20 -2 128 -78 134 -86c6 -7 5 -15 -7 -23c-10 -6 -17 -7 -34 -1c-24 9 -74 34 -93 45z
" />
    <glyph glyph-name="Ograve" unicode="&#xd2;" horiz-adv-x="465" 
d="M215 792c38 11 93 2 133 -34c119 -110 112 -401 94 -511c-7 -48 -39 -202 -139 -248c-41 -19 -87 -20 -131 6c-105 66 -133 227 -137 324c-3 85 -8 339 126 439c14 10 35 19 54 24zM190 702c-89 -90 -73 -383 -57 -477c9 -56 32 -138 88 -166c20 -10 42 -7 57 2
c68 39 86 178 91 242c7 77 6 336 -73 407c-21 18 -45 22 -66 17c-16 -4 -30 -14 -40 -25zM201 937l106 -43c21 -9 23 -12 20 -24c-8 -22 -10 -24 -18 -24s-117 29 -117 29c-31 7 -38 9 -35 23l9 28c6 23 19 16 35 11z" />
    <glyph glyph-name="Uacute" unicode="&#xda;" 
d="M34 782h205v-69h-61v-485c0 -46 -5 -128 49 -161c24 -13 57 -10 77 0c55 32 49 165 49 174v472h-61v69h206v-69h-61v-465c0 -61 -2 -197 -91 -248c-45 -27 -114 -28 -160 -1c-90 52 -91 155 -91 247v467h-61v69zM312 926c16 5 28 12 35 -11l8 -27c4 -14 -3 -16 -34 -24
c0 0 -109 -29 -118 -29c-7 0 -9 2 -17 25c-3 12 -1 15 20 23z" />
    <glyph glyph-name="Ucircumflex" unicode="&#xdb;" 
d="M34 782h205v-69h-61v-485c0 -46 -5 -128 49 -161c24 -13 57 -10 77 0c55 32 49 165 49 174v472h-61v69h206v-69h-61v-465c0 -61 -2 -197 -91 -248c-45 -27 -114 -28 -160 -1c-90 52 -91 155 -91 247v467h-61v69zM262 884c-18 -10 -68 -36 -92 -45c-17 -6 -27 -5 -34 1
c-10 8 -13 17 -8 23c7 9 115 85 134 87c20 -2 128 -78 134 -87c5 -6 4 -15 -7 -23c-10 -6 -17 -7 -35 -1c-23 9 -73 35 -92 45z" />
    <glyph glyph-name="Ugrave" unicode="&#xd9;" 
d="M34 782h205v-69h-61v-485c0 -46 -5 -128 49 -161c24 -13 57 -10 77 0c55 32 49 165 49 174v472h-61v69h206v-69h-61v-465c0 -61 -2 -197 -91 -248c-45 -27 -114 -28 -160 -1c-90 52 -91 155 -91 247v467h-61v69zM219 926l106 -43c21 -8 23 -11 20 -23
c-8 -23 -10 -25 -17 -25c-9 0 -118 29 -118 29c-31 8 -38 10 -34 24l8 27c7 23 19 16 35 11z" />
    <glyph glyph-name="dotlessi" unicode="&#x131;" horiz-adv-x="204" 
d="M34 469h117v-413h42v-56h-159v56h42v357h-42v56z" />
    <glyph glyph-name="circumflex" unicode="&#x2c6;" horiz-adv-x="323" 
d="M170 884c-18 -10 -68 -36 -92 -45c-17 -6 -27 -5 -34 1c-10 8 -13 17 -8 23c7 9 115 85 134 87c20 -2 128 -78 134 -87c5 -6 4 -15 -7 -23c-10 -6 -18 -7 -35 -1c-23 9 -74 35 -92 45z" />
    <glyph glyph-name="tilde" unicode="&#x2dc;" horiz-adv-x="308" 
d="M51 913c25 8 40 12 70 6c15 -4 29 -7 44 -10c50 -10 75 -11 121 1v-66c-25 -8 -46 -12 -76 -6c-15 4 -29 7 -44 10c-50 10 -69 11 -115 -1v66z" />
    <glyph glyph-name="ring" unicode="&#x2da;" horiz-adv-x="273" 
d="M141 713c51 0 92 -42 92 -92c0 -49 -41 -89 -92 -89c-49 0 -92 40 -92 89c0 50 43 92 92 92zM92 621c0 -27 23 -49 49 -49c28 0 51 22 51 49c0 28 -23 50 -51 50c-26 0 -49 -22 -49 -50z" />
    </font>
</defs>
</svg>
